<svg version='1.1' baseProfile='full' xmlns='http://www.w3.org/2000/svg' width='1413.117175725809' height='184.1775229067883'><g transform='translate(5, 5)'><g transform='scale(1.02495048418853) translate(19.9375, -75)'><g><g><polyline points="20,150 32,150 44,150 " style="fill: none; stroke: black;"></polyline><g transform="translate(30, 155)"><text text-anchor="start" y="3" transform="rotate(90)" font-size="12">224x224</text></g></g><g transform="translate(-14, 155)"><text text-anchor="start" y="3" transform="rotate(90)" font-size="12">224x224</text></g></g><g><g><polyline points="65.78973105134475,150 77.78973105134475,150 89.78973105134475,150 " style="fill: none; stroke: black;"></polyline><g transform="translate(75.78973105134475, 155)"><text text-anchor="start" y="3" transform="rotate(90)" font-size="12">112x112</text></g></g></g><g><g><polyline points="111.57946210268949,150 123.57946210268949,150 135.5794621026895,150 " style="fill: none; stroke: black;"></polyline><g transform="translate(121.57946210268949, 155)"><text text-anchor="start" y="3" transform="rotate(90)" font-size="12">56x56</text></g></g></g><g><g><polyline points="1301.3202933985328,150 1313.3202933985328,150 1325.3202933985328,150 " style="fill: none; stroke: black;"></polyline></g></g><g></g><g><g><polyline points="163.00244498777505,150 175.00244498777505,150 187.00244498777505,150 " style="fill: none; stroke: black;"></polyline><g transform="translate(173.00244498777505, 155)"><text text-anchor="start" y="3" transform="rotate(90)" font-size="12">56x56</text></g></g></g><g><g><polyline points="324.78239608801954,150 336.78239608801954,150 348.78239608801954,150 " style="fill: none; stroke: black;"></polyline><g transform="translate(334.78239608801954, 155)"><text text-anchor="start" y="3" transform="rotate(90)" font-size="12">28x28</text></g></g></g><g><g><polyline points="575.5403422982886,150 587.5403422982885,150 599.5403422982885,150 " style="fill: none; stroke: black;"></polyline><g transform="translate(585.5403422982886, 155)"><text text-anchor="start" y="3" transform="rotate(90)" font-size="12">14x14</text></g></g></g><g><g><polyline points="1049.3202933985328,150 1061.3202933985328,150 1073.3202933985328,150 " style="fill: none; stroke: black;"></polyline><g transform="translate(1059.3202933985328, 155)"><text text-anchor="start" y="3" transform="rotate(90)" font-size="12">7x7</text></g></g></g><g><g><polyline points="214.4254278728606,150 226.4254278728606,150 238.4254278728606,150 " style="fill: none; stroke: black;"></polyline><g transform="translate(224.4254278728606, 155)"><text text-anchor="start" y="3" transform="rotate(90)" font-size="12">56x56</text></g></g></g><g><g><polyline points="265.84841075794617,150 277.84841075794617,150 289.84841075794617,150 " style="fill: none; stroke: black;"></polyline><g transform="translate(275.84841075794617, 155)"><text text-anchor="start" y="3" transform="rotate(90)" font-size="12">56x56</text></g></g></g><g><g><polyline points="383.7163814180929,150 395.7163814180929,150 407.7163814180929,150 " style="fill: none; stroke: black;"></polyline><g transform="translate(393.7163814180929, 155)"><text text-anchor="start" y="3" transform="rotate(90)" font-size="12">28x28</text></g></g></g><g><g><polyline points="442.6503667481663,150 454.6503667481663,150 466.6503667481663,150 " style="fill: none; stroke: black;"></polyline><g transform="translate(452.6503667481663, 155)"><text text-anchor="start" y="3" transform="rotate(90)" font-size="12">28x28</text></g></g></g><g><g><polyline points="501.58435207823965,150 513.5843520782396,150 525.5843520782396,150 " style="fill: none; stroke: black;"></polyline><g transform="translate(511.58435207823965, 155)"><text text-anchor="start" y="3" transform="rotate(90)" font-size="12">28x28</text></g></g></g><g><g><polyline points="649.4963325183375,150 661.4963325183373,150 673.4963325183373,150 " style="fill: none; stroke: black;"></polyline><g transform="translate(659.4963325183375, 155)"><text text-anchor="start" y="3" transform="rotate(90)" font-size="12">14x14</text></g></g></g><g><g><polyline points="723.4523227383863,150 735.4523227383862,150 747.4523227383862,150 " style="fill: none; stroke: black;"></polyline><g transform="translate(733.4523227383863, 155)"><text text-anchor="start" y="3" transform="rotate(90)" font-size="12">14x14</text></g></g></g><g><g><polyline points="797.4083129584352,150 809.4083129584351,150 821.4083129584351,150 " style="fill: none; stroke: black;"></polyline><g transform="translate(807.4083129584352, 155)"><text text-anchor="start" y="3" transform="rotate(90)" font-size="12">14x14</text></g></g></g><g><g><polyline points="871.3643031784841,150 883.364303178484,150 895.364303178484,150 " style="fill: none; stroke: black;"></polyline><g transform="translate(881.3643031784841, 155)"><text text-anchor="start" y="3" transform="rotate(90)" font-size="12">14x14</text></g></g></g><g><g><polyline points="945.320293398533,150 957.3202933985328,150 969.3202933985328,150 " style="fill: none; stroke: black;"></polyline><g transform="translate(955.320293398533, 155)"><text text-anchor="start" y="3" transform="rotate(90)" font-size="12">14x14</text></g></g></g><g><g><polyline points="1153.3202933985328,150 1165.3202933985328,150 1177.3202933985328,150 " style="fill: none; stroke: black;"></polyline><g transform="translate(1163.3202933985328, 155)"><text text-anchor="start" y="3" transform="rotate(90)" font-size="12">7x7</text></g></g></g><g><g><polyline points="1257.3202933985328,150 1269.3202933985328,150 1281.3202933985328,150 " style="fill: none; stroke: black;"></polyline><g transform="translate(1267.3202933985328, 155)"><text text-anchor="start" y="3" transform="rotate(90)" font-size="12">7x7</text></g></g></g><g><g transform="translate(0, 75)"><path d="M 0 1.7488789237668243 L 20 1.7488789237668243 V 148.25112107623318 L 0 148.25112107623318 V 1.7488789237668243 z" style="fill: rgb(158, 158, 158); stroke: rgb(132, 132, 132); stroke-width: 4; stroke-linejoin: round;"></path><g></g><text text-anchor="middle" x="10" y="165.25112107623318" font-size="12">3</text></g></g><g><g transform="translate(44, 75)"><path d="M 0 0 L 21.789731051344745 34.39461883408072 V 115.60538116591928 L 0 150 V 0 z" style="fill: rgb(139, 195, 74); stroke: rgb(113, 164, 54); stroke-width: 4; stroke-linejoin: round;"></path><g></g><text text-anchor="middle" x="10.894865525672373" y="167" font-size="12">64</text></g></g><g><g transform="translate(89.78973105134475, 75)"><path d="M 0 33.81165919282511 L 21.789731051344745 50.71748878923767 V 99.28251121076232 L 0 116.18834080717488 V 33.81165919282511 z" style="fill: rgb(233, 30, 99); stroke: rgb(193, 19, 78); stroke-width: 4; stroke-linejoin: round;"></path><g></g><text text-anchor="middle" x="10.894865525672373" y="133.18834080717488" font-size="12">64</text></g></g><g><g transform="translate(1281.3202933985328, 75)"><path d="M 0 0 L 20 0 V 150 L 0 150 V 0 z" style="fill: rgb(0, 150, 136); stroke: rgb(0, 99, 90); stroke-width: 4; stroke-linejoin: round;"></path><g></g><text text-anchor="middle" x="10" y="167" font-size="12">2048</text></g></g><g><g transform="translate(1325.3202933985328, 75)"><path d="M 0 0 L 20 0 V 150 L 0 150 V 0 z" style="fill: rgb(255, 152, 0); stroke: rgb(204, 122, 0); stroke-width: 4; stroke-linejoin: round;"></path><g></g><text text-anchor="middle" x="10" y="167" font-size="12">1000</text></g></g><g><g transform="translate(135.5794621026895, 75)"><path d="M 0 50.71748878923767 L 27.422982885085574 50.71748878923767 V 99.28251121076232 L 0 99.28251121076232 V 50.71748878923767 z" style="fill: rgb(12, 124, 213); stroke: rgb(33, 150, 243); stroke-width: 12; stroke-linejoin: round;"></path><g></g><text text-anchor="middle" x="13.711491442542787" y="116.28251121076232" font-size="12">256</text></g></g><g><g transform="translate(289.84841075794617, 75)"><path d="M 0 50.71748878923767 L 34.93398533007335 58.87892376681614 V 91.12107623318386 L 0 99.28251121076232 V 50.71748878923767 z" style="fill: rgb(12, 124, 213); stroke: rgb(33, 150, 243); stroke-width: 12; stroke-linejoin: round;"></path><g></g><text text-anchor="middle" x="17.466992665036674" y="116.28251121076232" font-size="12">512</text></g></g><g><g transform="translate(525.5843520782396, 75)"><path d="M 0 58.87892376681614 L 49.9559902200489 62.95964125560538 V 87.04035874439462 L 0 91.12107623318386 V 58.87892376681614 z" style="fill: rgb(12, 124, 213); stroke: rgb(33, 150, 243); stroke-width: 12; stroke-linejoin: round;"></path><g></g><text text-anchor="middle" x="24.97799511002445" y="108.12107623318386" font-size="12">1024</text></g></g><g><g transform="translate(969.3202933985328, 75)"><path d="M 0 62.95964125560538 L 80 65 V 85 L 0 87.04035874439462 V 62.95964125560538 z" style="fill: rgb(12, 124, 213); stroke: rgb(33, 150, 243); stroke-width: 12; stroke-linejoin: round;"></path><g></g><text text-anchor="middle" x="40" y="104.04035874439462" font-size="12">2048</text></g></g><g><g transform="translate(187.00244498777505, 75)"><path d="M 0 50.71748878923767 L 27.422982885085574 50.71748878923767 V 99.28251121076232 L 0 99.28251121076232 V 50.71748878923767 z" style="fill: rgb(211, 158, 0); stroke: rgb(255, 193, 7); stroke-width: 12; stroke-linejoin: round;"></path><g></g><text text-anchor="middle" x="13.711491442542787" y="116.28251121076232" font-size="12">256</text></g></g><g><g transform="translate(238.4254278728606, 75)"><path d="M 0 50.71748878923767 L 27.422982885085574 50.71748878923767 V 99.28251121076232 L 0 99.28251121076232 V 50.71748878923767 z" style="fill: rgb(211, 158, 0); stroke: rgb(255, 193, 7); stroke-width: 12; stroke-linejoin: round;"></path><g></g><text text-anchor="middle" x="13.711491442542787" y="116.28251121076232" font-size="12">256</text></g></g><g><g transform="translate(348.78239608801954, 75)"><path d="M 0 58.87892376681614 L 34.93398533007335 58.87892376681614 V 91.12107623318386 L 0 91.12107623318386 V 58.87892376681614 z" style="fill: rgb(211, 158, 0); stroke: rgb(255, 193, 7); stroke-width: 12; stroke-linejoin: round;"></path><g></g><text text-anchor="middle" x="17.466992665036674" y="108.12107623318386" font-size="12">512</text></g></g><g><g transform="translate(407.7163814180929, 75)"><path d="M 0 58.87892376681614 L 34.93398533007335 58.87892376681614 V 91.12107623318386 L 0 91.12107623318386 V 58.87892376681614 z" style="fill: rgb(211, 158, 0); stroke: rgb(255, 193, 7); stroke-width: 12; stroke-linejoin: round;"></path><g></g><text text-anchor="middle" x="17.466992665036674" y="108.12107623318386" font-size="12">512</text></g></g><g><g transform="translate(466.6503667481663, 75)"><path d="M 0 58.87892376681614 L 34.93398533007335 58.87892376681614 V 91.12107623318386 L 0 91.12107623318386 V 58.87892376681614 z" style="fill: rgb(211, 158, 0); stroke: rgb(255, 193, 7); stroke-width: 12; stroke-linejoin: round;"></path><g></g><text text-anchor="middle" x="17.466992665036674" y="108.12107623318386" font-size="12">512</text></g></g><g><g transform="translate(599.5403422982885, 75)"><path d="M 0 62.95964125560538 L 49.9559902200489 62.95964125560538 V 87.04035874439462 L 0 87.04035874439462 V 62.95964125560538 z" style="fill: rgb(211, 158, 0); stroke: rgb(255, 193, 7); stroke-width: 12; stroke-linejoin: round;"></path><g></g><text text-anchor="middle" x="24.97799511002445" y="104.04035874439462" font-size="12">1024</text></g></g><g><g transform="translate(673.4963325183373, 75)"><path d="M 0 62.95964125560538 L 49.9559902200489 62.95964125560538 V 87.04035874439462 L 0 87.04035874439462 V 62.95964125560538 z" style="fill: rgb(211, 158, 0); stroke: rgb(255, 193, 7); stroke-width: 12; stroke-linejoin: round;"></path><g></g><text text-anchor="middle" x="24.97799511002445" y="104.04035874439462" font-size="12">1024</text></g></g><g><g transform="translate(747.4523227383862, 75)"><path d="M 0 62.95964125560538 L 49.9559902200489 62.95964125560538 V 87.04035874439462 L 0 87.04035874439462 V 62.95964125560538 z" style="fill: rgb(211, 158, 0); stroke: rgb(255, 193, 7); stroke-width: 12; stroke-linejoin: round;"></path><g></g><text text-anchor="middle" x="24.97799511002445" y="104.04035874439462" font-size="12">1024</text></g></g><g><g transform="translate(821.4083129584351, 75)"><path d="M 0 62.95964125560538 L 49.9559902200489 62.95964125560538 V 87.04035874439462 L 0 87.04035874439462 V 62.95964125560538 z" style="fill: rgb(211, 158, 0); stroke: rgb(255, 193, 7); stroke-width: 12; stroke-linejoin: round;"></path><g></g><text text-anchor="middle" x="24.97799511002445" y="104.04035874439462" font-size="12">1024</text></g></g><g><g transform="translate(895.364303178484, 75)"><path d="M 0 62.95964125560538 L 49.9559902200489 62.95964125560538 V 87.04035874439462 L 0 87.04035874439462 V 62.95964125560538 z" style="fill: rgb(211, 158, 0); stroke: rgb(255, 193, 7); stroke-width: 12; stroke-linejoin: round;"></path><g></g><text text-anchor="middle" x="24.97799511002445" y="104.04035874439462" font-size="12">1024</text></g></g><g><g transform="translate(1073.3202933985328, 75)"><path d="M 0 65 L 80 65 V 85 L 0 85 V 65 z" style="fill: rgb(211, 158, 0); stroke: rgb(255, 193, 7); stroke-width: 12; stroke-linejoin: round;"></path><g></g><text text-anchor="middle" x="40" y="102" font-size="12">2048</text></g></g><g><g transform="translate(1177.3202933985328, 75)"><path d="M 0 65 L 80 65 V 85 L 0 85 V 65 z" style="fill: rgb(211, 158, 0); stroke: rgb(255, 193, 7); stroke-width: 12; stroke-linejoin: round;"></path><g></g><text text-anchor="middle" x="40" y="102" font-size="12">2048</text></g></g></g></g></svg>