<svg version='1.1' baseProfile='full' xmlns='http://www.w3.org/2000/svg' width='1506.56875' height='118.4125'><g transform='translate(5, 5)'><g transform='scale(1.2) translate(1.140625, 20)'><g><text text-anchor="middle" x="15" y="47" style="fill: black;">Input</text><rect x="10" y="0" width="10" height="30" style="fill: rgb(158, 158, 158); stroke: rgb(132, 132, 132); stroke-linejoin: round; stroke-width: 2;"></rect></g><g><text text-anchor="middle" x="145" y="47" style="fill: black;">Conv</text><rect x="140" y="0" width="10" height="30" style="fill: rgb(139, 195, 74); stroke: rgb(113, 164, 54); stroke-linejoin: round; stroke-width: 2;"></rect></g><g><text text-anchor="middle" x="275" y="47" style="fill: black;">MaxPool</text><rect x="270" y="0" width="10" height="30" style="fill: rgb(233, 30, 99); stroke: rgb(193, 19, 78); stroke-linejoin: round; stroke-width: 2;"></rect></g><g><text text-anchor="middle" x="405" y="47" style="fill: black;">Add</text><rect x="400" y="0" width="10" height="30" style="fill: rgb(121, 85, 72); stroke: rgb(89, 63, 53); stroke-linejoin: round; stroke-width: 2;"></rect></g><g><text text-anchor="middle" x="535" y="47" style="fill: black;">Gl. Avg. Pool</text><rect x="530" y="0" width="10" height="30" style="fill: rgb(0, 150, 136); stroke: rgb(0, 99, 90); stroke-linejoin: round; stroke-width: 2;"></rect></g><g><text text-anchor="middle" x="665" y="47" style="fill: black;">Dense</text><rect x="660" y="0" width="10" height="30" style="fill: rgb(255, 152, 0); stroke: rgb(204, 122, 0); stroke-linejoin: round; stroke-width: 2;"></rect></g><g><text text-anchor="middle" x="795" y="47" style="fill: black;">Split</text><rect x="790" y="0" width="10" height="30" style="fill: rgb(156, 39, 176); stroke: rgb(119, 30, 134); stroke-linejoin: round; stroke-width: 2;"></rect></g><g><rect x="920" y="0" width="10" height="30" style="fill: rgb(12, 124, 213); stroke: rgb(33, 150, 243); stroke-linejoin: round; stroke-width: 6;"></rect><text text-anchor="middle" x="937.5" y="21" style="fill: black;">=</text><g transform="translate(0, -35)"><text text-anchor="middle" x="971.5" y="102" style="fill: black;">Residual 1</text><g transform="translate(945, 0)"><polyline points="11,30 17,30 " style="fill: none; stroke: black;"></polyline><polyline points="11,70 22,70 30.5,70 39,70 47.5,70 51,70 " style="fill: none; stroke: black;"></polyline><g transform="translate(0, 35)"><path d="M 0 0 L 10 -20 V 10 L 7.5 15 L 10 20 V 50 L 0 30 V 0 z" style="fill: rgb(156, 39, 176); stroke: rgb(119, 30, 134); stroke-linejoin: round; stroke-width: 2;"></path></g></g><g transform="translate(945, 0)"><polyline points="27,30 30.5,30 34,30 " style="fill: none; stroke: black;"></polyline><g transform="translate(17, 15)"><path d="M 0 0 L 10 0 V 30 L 0 30 V 0 z" style="fill: rgb(139, 195, 74); stroke: rgb(113, 164, 54); stroke-linejoin: round; stroke-width: 2;"></path></g></g><g transform="translate(945, 0)"><polyline points="44,30 47.5,30 51,30 " style="fill: none; stroke: black;"></polyline><g transform="translate(34, 15)"><path d="M 0 0 L 10 0 V 30 L 0 30 V 0 z" style="fill: rgb(139, 195, 74); stroke: rgb(113, 164, 54); stroke-linejoin: round; stroke-width: 2;"></path></g></g><g transform="translate(945, 0)"><polyline points="61,30 67,30 " style="fill: none; stroke: black;"></polyline><g transform="translate(51, 15)"><path d="M 0 0 L 10 0 V 30 L 0 30 V 0 z" style="fill: rgb(139, 195, 74); stroke: rgb(113, 164, 54); stroke-linejoin: round; stroke-width: 2;"></path></g></g><g transform="translate(945, 0)"><g transform="translate(68, 35)"><path d="M 10 30 L 0 50 V 20 L 2.5 15 L 0 10 V -20 L 10 0 V 30 z" style="fill: rgb(121, 85, 72); stroke: rgb(89, 63, 53); stroke-linejoin: round; stroke-width: 2;"></path></g></g><g transform="translate(945, 0)"><polyline points="61,70 67,70 " style="fill: none; stroke: black;"></polyline><g transform="translate(51, 55)"><path d="M 0 0 L 10 0 V 30 L 0 30 V 0 z" style="fill: rgb(139, 195, 74); stroke: rgb(113, 164, 54); stroke-linejoin: round; stroke-width: 2;"></path></g></g></g></g><g><rect x="1143" y="0" width="10" height="30" style="fill: rgb(211, 158, 0); stroke: rgb(255, 193, 7); stroke-linejoin: round; stroke-width: 6;"></rect><text text-anchor="middle" x="1160.5" y="21" style="fill: black;">=</text><g transform="translate(0, -15)"><text text-anchor="middle" x="1194.5" y="82" style="fill: black;">Residual 2</text><g transform="translate(1168, 0)"><polyline points="11,50 17,50 " style="fill: none; stroke: black;"></polyline><polyline points="11,10 22,10 30.5,10 39,10 47.5,10 56,10 67,10 " style="fill: none; stroke: black;"></polyline><g transform="translate(0, 15)"><path d="M 0 0 L 10 -20 V 10 L 7.5 15 L 10 20 V 50 L 0 30 V 0 z" style="fill: rgb(156, 39, 176); stroke: rgb(119, 30, 134); stroke-linejoin: round; stroke-width: 2;"></path></g></g><g transform="translate(1168, 0)"><polyline points="27,50 30.5,50 34,50 " style="fill: none; stroke: black;"></polyline><g transform="translate(17, 35)"><path d="M 0 0 L 10 0 V 30 L 0 30 V 0 z" style="fill: rgb(139, 195, 74); stroke: rgb(113, 164, 54); stroke-linejoin: round; stroke-width: 2;"></path></g></g><g transform="translate(1168, 0)"><polyline points="44,50 47.5,50 51,50 " style="fill: none; stroke: black;"></polyline><g transform="translate(34, 35)"><path d="M 0 0 L 10 0 V 30 L 0 30 V 0 z" style="fill: rgb(139, 195, 74); stroke: rgb(113, 164, 54); stroke-linejoin: round; stroke-width: 2;"></path></g></g><g transform="translate(1168, 0)"><polyline points="61,50 67,50 " style="fill: none; stroke: black;"></polyline><g transform="translate(51, 35)"><path d="M 0 0 L 10 0 V 30 L 0 30 V 0 z" style="fill: rgb(139, 195, 74); stroke: rgb(113, 164, 54); stroke-linejoin: round; stroke-width: 2;"></path></g></g><g transform="translate(1168, 0)"><g transform="translate(68, 15)"><path d="M 10 30 L 0 50 V 20 L 2.5 15 L 0 10 V -20 L 10 0 V 30 z" style="fill: rgb(121, 85, 72); stroke: rgb(89, 63, 53); stroke-linejoin: round; stroke-width: 2;"></path></g></g></g></g></g></g></svg>