<svg version='1.1' baseProfile='full' xmlns='http://www.w3.org/2000/svg' width='1152.462873008475' height='232.70903768931194'><g transform='translate(5, 5)'><g transform='scale(0.7207776693863952) translate(134, 11.5)'><g><g><polyline points="83.8533724340176,152.5 100.85337243401759,152.5 117.85337243401759,152.5 " style="fill: none; stroke: black;"></polyline><g transform="translate(98.8533724340176, 157.5)"><text text-anchor="start" y="3" transform="rotate(90)" font-size="12">128x128</text></g></g></g><g><g><polyline points="211.7165200391007,193 228.7165200391007,193 245.7165200391007,193 " style="fill: none; stroke: black;"></polyline><g transform="translate(226.7165200391007, 198)"><text text-anchor="start" y="3" transform="rotate(90)" font-size="12">64x64</text></g></g></g><g><g><polyline points="359.5992179863148,227.5 376.5992179863147,227.5 393.5992179863147,227.5 " style="fill: none; stroke: black;"></polyline><g transform="translate(374.5992179863148, 232.5)"><text text-anchor="start" y="3" transform="rotate(90)" font-size="12">32x32</text></g></g></g><g><g><polyline points="547.5210166177908,259 564.5210166177908,259 581.5210166177908,259 " style="fill: none; stroke: black;"></polyline><g transform="translate(562.5210166177908, 264)"><text text-anchor="start" y="3" transform="rotate(90)" font-size="12">16x16</text></g></g></g><g><g><polyline points="775.4819159335289,227.5 792.4819159335289,227.5 809.4819159335289,227.5 " style="fill: none; stroke: black;"></polyline><g transform="translate(790.4819159335289, 232.5)"><text text-anchor="start" y="3" transform="rotate(90)" font-size="12">32x32</text></g></g></g><g><g><polyline points="943.384164222874,193 960.384164222874,193 977.384164222874,193 " style="fill: none; stroke: black;"></polyline><g transform="translate(958.384164222874, 198)"><text text-anchor="start" y="3" transform="rotate(90)" font-size="12">64x64</text></g></g></g><g><g><polyline points="1081.2570869990227,152.5 1098.2570869990227,152.5 1115.2570869990227,152.5 " style="fill: none; stroke: black;"></polyline><g transform="translate(1096.2570869990227, 157.5)"><text text-anchor="start" y="3" transform="rotate(90)" font-size="12">128x128</text></g></g></g><g><g><polyline points="1204.1153470185732,100 1221.1153470185732,100 1238.1153470185732,100 " style="fill: none; stroke: black;"></polyline><g transform="translate(1219.1153470185732, 105)"><text text-anchor="start" y="3" transform="rotate(90)" font-size="12">256x256</text></g></g></g><g><g><polyline points="26.926686217008793,152.5 58.9266862170088,152.5 " style="fill: none; stroke: black;"></polyline><g transform="translate(39.92668621700879, 157.5)"><text text-anchor="start" y="3" transform="rotate(90)" font-size="12">256x256</text></g></g><g><polyline points="26.926686217008793,38.5 71.3900293255132,38.5 100.85337243401759,38.5 132.81915933528836,38.5 164.78494623655914,38.5 196.7507331378299,38.5 228.7165200391007,38.5 265.6871945259042,38.5 302.6578690127077,38.5 339.62854349951124,38.5 376.5992179863147,38.5 423.57966764418376,38.5 470.56011730205273,38.5 517.5405669599218,38.5 564.5210166177908,38.5 611.5014662756598,38.5 658.4819159335289,38.5 725.4819159335289,38.5 792.4819159335289,38.5 829.4525904203324,38.5 866.423264907136,38.5 913.403714565005,38.5 960.384164222874,38.5 992.3499511241448,38.5 1024.3157380254156,38.5 1061.2864125122192,38.5 1098.2570869990227,38.5 1127.7204301075271,38.5 1172.1837732160316,38.5 " style="fill: none; stroke: black;"></polyline><g transform="translate(39.92668621700879, 43.5)"><text text-anchor="start" y="3" transform="rotate(90)" font-size="12">256x256</text></g></g><g transform="translate(-18.999999999999996, 105)"><text text-anchor="start" y="3" transform="rotate(90)" font-size="12">256x256</text></g></g><g><g><polyline points="149.78494623655914,193 181.78494623655914,193 " style="fill: none; stroke: black;"></polyline><g transform="translate(162.78494623655914, 198)"><text text-anchor="start" y="3" transform="rotate(90)" font-size="12">128x128</text></g></g><g><polyline points="149.78494623655914,101 196.7507331378299,101 228.7165200391007,101 265.6871945259042,101 302.6578690127077,101 339.62854349951124,101 376.5992179863147,101 423.57966764418376,101 470.56011730205273,101 517.5405669599218,101 564.5210166177908,101 611.5014662756598,101 658.4819159335289,101 725.4819159335289,101 792.4819159335289,101 829.4525904203324,101 866.423264907136,101 913.403714565005,101 960.384164222874,101 992.3499511241448,101 1039.3157380254156,101 " style="fill: none; stroke: black;"></polyline><g transform="translate(162.78494623655914, 106)"><text text-anchor="start" y="3" transform="rotate(90)" font-size="12">128x128</text></g></g></g><g><g><polyline points="287.6578690127077,227.5 319.6578690127077,227.5 " style="fill: none; stroke: black;"></polyline><g transform="translate(300.6578690127077, 232.5)"><text text-anchor="start" y="3" transform="rotate(90)" font-size="12">64x64</text></g></g><g><polyline points="287.6578690127077,151.5 339.62854349951124,151.5 376.5992179863147,151.5 423.57966764418376,151.5 470.56011730205273,151.5 517.5405669599218,151.5 564.5210166177908,151.5 611.5014662756598,151.5 658.4819159335289,151.5 725.4819159335289,151.5 792.4819159335289,151.5 829.4525904203324,151.5 881.423264907136,151.5 " style="fill: none; stroke: black;"></polyline><g transform="translate(300.6578690127077, 156.5)"><text text-anchor="start" y="3" transform="rotate(90)" font-size="12">64x64</text></g></g></g><g><g><polyline points="455.56011730205273,259 487.56011730205273,259 " style="fill: none; stroke: black;"></polyline><g transform="translate(468.5601173020528, 264)"><text text-anchor="start" y="3" transform="rotate(90)" font-size="12">32x32</text></g></g><g><polyline points="455.56011730205273,196 517.5405669599218,196 564.5210166177908,196 611.5014662756598,196 673.4819159335289,196 " style="fill: none; stroke: black;"></polyline><g transform="translate(468.5601173020528, 201)"><text text-anchor="start" y="3" transform="rotate(90)" font-size="12">32x32</text></g></g></g><g><g><polyline points="1263.042033235582,100 1280.042033235582,100 1297.042033235582,100 " style="fill: none; stroke: black;"></polyline><g transform="translate(1278.042033235582, 105)"><text text-anchor="start" y="3" transform="rotate(90)" font-size="12">256x256</text></g></g></g><g><g transform="translate(1332.042033235582, 105)"><text text-anchor="start" y="3" transform="rotate(90)" font-size="12">256x256</text></g></g><g><g><polyline points="641.4819159335289,259 673.4819159335289,259 " style="fill: none; stroke: black;"></polyline><g transform="translate(656.4819159335289, 264)"><text text-anchor="start" y="3" transform="rotate(90)" font-size="12">32x32</text></g></g></g><g><g><polyline points="849.423264907136,227.5 881.423264907136,227.5 " style="fill: none; stroke: black;"></polyline><g transform="translate(864.423264907136, 232.5)"><text text-anchor="start" y="3" transform="rotate(90)" font-size="12">64x64</text></g></g></g><g><g><polyline points="1007.3157380254156,193 1039.3157380254156,193 " style="fill: none; stroke: black;"></polyline><g transform="translate(1022.3157380254156, 198)"><text text-anchor="start" y="3" transform="rotate(90)" font-size="12">128x128</text></g></g></g><g><g><polyline points="1140.1837732160316,152.5 1172.1837732160316,152.5 " style="fill: none; stroke: black;"></polyline><g transform="translate(1155.1837732160316, 157.5)"><text text-anchor="start" y="3" transform="rotate(90)" font-size="12">256x256</text></g></g></g><g><g transform="translate(58.9266862170088, 102.5)"><path d="M 0 0 L 24.926686217008797 24 V 76 L 0 100 V 0 z" style="fill: rgb(33, 150, 243); stroke: rgb(12, 124, 213); stroke-width: 4; stroke-linejoin: round;"></path><g></g><text text-anchor="middle" x="12.463343108504398" y="117" font-size="12">64</text></g></g><g><g transform="translate(181.78494623655914, 143)"><path d="M 0 24 L 29.931573802541543 36 V 64 L 0 76 V 24 z" style="fill: rgb(33, 150, 243); stroke: rgb(12, 124, 213); stroke-width: 4; stroke-linejoin: round;"></path><g></g><text text-anchor="middle" x="14.965786901270771" y="93" font-size="12">128</text></g></g><g><g transform="translate(319.6578690127077, 177.5)"><path d="M 0 36 L 39.941348973607035 42 V 58 L 0 64 V 36 z" style="fill: rgb(33, 150, 243); stroke: rgb(12, 124, 213); stroke-width: 4; stroke-linejoin: round;"></path><g></g><text text-anchor="middle" x="19.970674486803517" y="81" font-size="12">256</text></g></g><g><g transform="translate(487.56011730205273, 209)"><path d="M 0 42 L 59.960899315738025 45 V 55 L 0 58 V 42 z" style="fill: rgb(33, 150, 243); stroke: rgb(12, 124, 213); stroke-width: 4; stroke-linejoin: round;"></path><g></g><text text-anchor="middle" x="29.980449657869013" y="75" font-size="12">512</text></g></g><g><g transform="translate(675.4819159335289, 177.5)"><path d="M 100 58 L 0 89.5 V 73.5 L 74.60317460317461 50 L 0 26.5 V 10.5 L 100 42 V 58 z" style="fill: rgb(121, 85, 72); stroke: rgb(89, 63, 53); stroke-width: 4; stroke-linejoin: round;"></path><g></g><text text-anchor="middle" x="50" y="106.5" font-size="12">1024</text></g></g><g><g transform="translate(883.423264907136, 143)"><path d="M 59.960899315738025 64 L 0 98.5 V 70.5 L 37.870041673097695 48.71052631578948 L 0 22.5 V -5.5 L 59.960899315738025 36 V 64 z" style="fill: rgb(121, 85, 72); stroke: rgb(89, 63, 53); stroke-width: 4; stroke-linejoin: round;"></path><g></g><text text-anchor="middle" x="29.980449657869013" y="115.5" font-size="12">512</text></g></g><g><g transform="translate(1041.3157380254156, 102.5)"><path d="M 39.941348973607035 76 L 0 116.5 V 64.5 L 17.365803901568274 46.891304347826086 L 0 24.5 V -27.5 L 39.941348973607035 24 V 76 z" style="fill: rgb(121, 85, 72); stroke: rgb(89, 63, 53); stroke-width: 4; stroke-linejoin: round;"></path><g></g><text text-anchor="middle" x="19.970674486803517" y="133.5" font-size="12">256</text></g></g><g><g transform="translate(1174.1837732160316, 50)"><path d="M 29.931573802541543 100 L 0 152.5 V 52.5 L 3.675807309084049 46.05263157894737 L 0 38.5 V -61.5 L 29.931573802541543 0 V 100 z" style="fill: rgb(121, 85, 72); stroke: rgb(89, 63, 53); stroke-width: 4; stroke-linejoin: round;"></path><g></g><text text-anchor="middle" x="14.965786901270771" y="169.5" font-size="12">128</text></g></g><g><g transform="translate(0, 50)"><path d="M 0 0 L 24.926686217008797 -61.5 V 38.5 L 21.865514225446315 46.05263157894737 L 24.926686217008797 52.5 V 152.5 L 0 100 V 0 z" style="fill: rgb(113, 164, 54); stroke: rgb(139, 195, 74); stroke-width: 12; stroke-linejoin: round;"></path><g></g><text text-anchor="middle" x="12.463343108504398" y="169.5" font-size="12">64</text></g><g transform="translate(-134, 50)"><rect x="0" y="0" width="100" height="100" style="stroke: lightgrey; stroke-linejoin: round; stroke-width: 2; fill-opacity: 0; stroke-dasharray: 4;"></rect></g></g><g><g transform="translate(117.85337243401759, 102.5)"><path d="M 0 24 L 29.931573802541543 -27.5 V 24.5 L 16.91784606230609 46.89130434782608 L 29.931573802541543 64.5 V 116.5 L 0 76 V 24 z" style="fill: rgb(113, 164, 54); stroke: rgb(139, 195, 74); stroke-width: 12; stroke-linejoin: round;"></path><g></g><text text-anchor="middle" x="14.965786901270771" y="133.5" font-size="12">128</text></g></g><g><g transform="translate(245.7165200391007, 143)"><path d="M 0 36 L 39.941348973607035 -5.5 V 22.5 L 14.715233832381536 48.71052631578948 L 39.941348973607035 70.5 V 98.5 L 0 64 V 36 z" style="fill: rgb(113, 164, 54); stroke: rgb(139, 195, 74); stroke-width: 12; stroke-linejoin: round;"></path><g></g><text text-anchor="middle" x="19.970674486803517" y="115.5" font-size="12">256</text></g></g><g><g transform="translate(393.5992179863147, 177.5)"><path d="M 0 42 L 59.960899315738025 10.5 V 26.5 L 15.228164905584258 50 L 59.960899315738025 73.5 V 89.5 L 0 58 V 42 z" style="fill: rgb(113, 164, 54); stroke: rgb(139, 195, 74); stroke-width: 12; stroke-linejoin: round;"></path><g></g><text text-anchor="middle" x="29.980449657869013" y="106.5" font-size="12">512</text></g></g><g><g transform="translate(1238.1153470185732, 50)"><path d="M 0 0 L 24.926686217008797 0 V 100 L 0 100 V 0 z" style="fill: rgb(113, 164, 54); stroke: rgb(139, 195, 74); stroke-width: 12; stroke-linejoin: round;"></path><g></g><text text-anchor="middle" x="12.463343108504398" y="117" font-size="12">64</text></g></g><g><g transform="translate(1297.042033235582, 50)"><path d="M 0 0 L 20 0 V 100 L 0 100 V 0 z" style="fill: rgb(113, 164, 54); stroke: rgb(139, 195, 74); stroke-width: 12; stroke-linejoin: round;"></path><g></g><text text-anchor="middle" x="10" y="117" font-size="12">1</text></g><g transform="translate(1351.042033235582, 50)"><rect x="0" y="0" width="100" height="100" style="stroke: lightgrey; stroke-linejoin: round; stroke-width: 2; fill-opacity: 0; stroke-dasharray: 4;"></rect></g></g><g><g transform="translate(581.5210166177908, 209)"><path d="M 0 45 L 59.960899315738025 42 V 58 L 0 55 V 45 z" style="fill: rgb(234, 28, 13); stroke: rgb(244, 67, 54); stroke-width: 12; stroke-linejoin: round;"></path><g></g><text text-anchor="middle" x="29.980449657869013" y="75" font-size="12">512</text></g></g><g><g transform="translate(809.4819159335289, 177.5)"><path d="M 0 42 L 39.941348973607035 36 V 64 L 0 58 V 42 z" style="fill: rgb(234, 28, 13); stroke: rgb(244, 67, 54); stroke-width: 12; stroke-linejoin: round;"></path><g></g><text text-anchor="middle" x="19.970674486803517" y="81" font-size="12">256</text></g></g><g><g transform="translate(977.384164222874, 143)"><path d="M 0 36 L 29.931573802541543 24 V 76 L 0 64 V 36 z" style="fill: rgb(234, 28, 13); stroke: rgb(244, 67, 54); stroke-width: 12; stroke-linejoin: round;"></path><g></g><text text-anchor="middle" x="14.965786901270771" y="93" font-size="12">128</text></g></g><g><g transform="translate(1115.2570869990227, 102.5)"><path d="M 0 24 L 24.926686217008797 0 V 100 L 0 76 V 24 z" style="fill: rgb(234, 28, 13); stroke: rgb(244, 67, 54); stroke-width: 12; stroke-linejoin: round;"></path><g></g><text text-anchor="middle" x="12.463343108504398" y="117" font-size="12">64</text></g></g></g></g></svg>