<svg version='1.1' baseProfile='full' xmlns='http://www.w3.org/2000/svg' width='790.703125' height='60.5'><g transform='translate(5, 5)'><g transform='scale(1) translate(9.703125, 0)'><g><text text-anchor="middle" x="15" y="47" style="fill: black;">Conv2D</text><rect x="10" y="0" width="10" height="30" style="fill: rgb(76, 175, 80); stroke: rgb(61, 139, 64); stroke-linejoin: round; stroke-width: 2;"></rect></g><g><text text-anchor="middle" x="145" y="47" style="fill: black;">MaxPool</text><rect x="140" y="0" width="10" height="30" style="fill: rgb(33, 150, 243); stroke: rgb(12, 124, 213); stroke-linejoin: round; stroke-width: 2;"></rect></g><g><text text-anchor="middle" x="275" y="47" style="fill: black;">DeConv</text><rect x="270" y="0" width="10" height="30" style="fill: rgb(255, 235, 59); stroke: rgb(255, 230, 8); stroke-linejoin: round; stroke-width: 2;"></rect></g><g><text text-anchor="middle" x="405" y="47" style="fill: black;">Concatenate</text><rect x="400" y="0" width="10" height="30" style="fill: rgb(121, 85, 72); stroke: rgb(89, 63, 53); stroke-linejoin: round; stroke-width: 2;"></rect></g><g><rect x="530" y="0" width="10" height="30" style="fill: rgb(113, 164, 54); stroke: rgb(139, 195, 74); stroke-linejoin: round; stroke-width: 6;"></rect><text text-anchor="middle" x="547.5" y="21" style="fill: black;">=</text><g transform="translate(0, -15)"><text text-anchor="middle" x="556" y="62" style="fill: black;">Basic</text><g transform="translate(555, 0)"><polyline points="10,30 13.5,30 17,30 " style="fill: none; stroke: black;"></polyline><g transform="translate(0, 15)"><path d="M 0 0 L 10 0 V 30 L 0 30 V 0 z" style="fill: rgb(76, 175, 80); stroke: rgb(61, 139, 64); stroke-linejoin: round; stroke-width: 2;"></path></g></g><g transform="translate(555, 0)"><g transform="translate(17, 15)"><path d="M 0 0 L 10 0 V 30 L 0 30 V 0 z" style="fill: rgb(76, 175, 80); stroke: rgb(61, 139, 64); stroke-linejoin: round; stroke-width: 2;"></path></g></g></g></g><g><rect x="702" y="0" width="10" height="30" style="fill: rgb(234, 28, 13); stroke: rgb(244, 67, 54); stroke-linejoin: round; stroke-width: 6;"></rect><text text-anchor="middle" x="719.5" y="21" style="fill: black;">=</text><g transform="translate(0, -15)"><text text-anchor="middle" x="736.5" y="62" style="fill: black;">Up</text><g transform="translate(727, 0)"><polyline points="10,30 13.5,30 17,30 " style="fill: none; stroke: black;"></polyline><g transform="translate(0, 15)"><path d="M 0 0 L 10 0 V 30 L 0 30 V 0 z" style="fill: rgb(113, 164, 54); stroke: rgb(139, 195, 74); stroke-linejoin: round; stroke-width: 6;"></path></g></g><g transform="translate(727, 0)"><polyline points="27,30 30.5,30 34,30 " style="fill: none; stroke: black;"></polyline><g transform="translate(17, 15)"><path d="M 0 0 L 10 0 V 30 L 0 30 V 0 z" style="fill: rgb(255, 235, 59); stroke: rgb(255, 230, 8); stroke-linejoin: round; stroke-width: 2;"></path></g></g><g transform="translate(727, 0)"><g transform="translate(34, 15)"><path d="M 0 0 L 10 0 V 30 L 0 30 V 0 z" style="fill: rgb(76, 175, 80); stroke: rgb(61, 139, 64); stroke-linejoin: round; stroke-width: 2;"></path></g></g></g></g></g></g></svg>